<?xml version="1.0" encoding="utf-8"?>
<!-- Generator: Adobe Illustrator 24.1.0, SVG Export Plug-In . SVG Version: 6.00 Build 0)  -->
<svg version="1.1" id="Layer_1" xmlns="http://www.w3.org/2000/svg" xmlns:xlink="http://www.w3.org/1999/xlink" x="0px" y="0px"
	 viewBox="0 0 100 125" style="enable-background:new 0 0 100 125;" xml:space="preserve">
<g>
	<path d="M30.3,90.7L30.3,90.7c0.2,0.2,0.4,0.3,0.7,0.3h58c0.6,0,1-0.4,1-1V32c0-0.4-0.2-0.7-0.5-0.8l0,0l-27-16
		C62.4,15,62.2,15,62,15H43.3H25.7H10c-0.6,0-1,0.4-1,1v52c0,0.3,0.1,0.5,0.3,0.7L30.3,90.7z M88,89H32V33h20v15c0,0.6,0.4,1,1,1h13
		c0.6,0,1-0.4,1-1V33h3.3H88V89z M54,47V33h11v14H54z M61.7,17l23.6,14h-18l-21-14H61.7z M42.7,17l21,14H53.3l-21-14H42.7z M28.7,17
		l21,14H31.3L13,17H28.7z M11,18l19,14.5v55L11,67.6V18z"/>
</g>
</svg>
